<svg width="30" height="26" viewBox="0 0 30 26" fill="none" xmlns="http://www.w3.org/2000/svg">
<path d="M12.6375 15.2379C12.6441 14.7178 12.4999 14.2045 12.2182 13.745C11.9364 13.2855 11.5261 12.8947 11.025 12.6085C10.5239 12.3223 9.94817 12.1499 9.35069 12.1072C8.75321 12.0644 8.15322 12.1527 7.6059 12.364C7.05859 12.5752 6.58153 12.9025 6.21862 13.3159C5.85572 13.7292 5.61862 14.2153 5.52914 14.7294C5.43967 15.2436 5.50069 15.7692 5.70658 16.2579C5.91248 16.7467 6.25665 17.1829 6.70742 17.5264C6.32108 17.8131 6.0099 18.1682 5.79472 18.568C5.57953 18.9678 5.46528 19.4029 5.45963 19.8444L5.44495 22.1703C5.44365 22.3759 5.53655 22.5737 5.70321 22.7201C5.86986 22.8666 6.09663 22.9497 6.33362 22.9512L8.12074 22.9625C8.35773 22.964 8.58553 22.8837 8.75402 22.7394C8.92251 22.595 9.0179 22.3984 9.0192 22.1928C9.0205 21.9872 8.9276 21.7894 8.76094 21.643C8.59428 21.4965 8.36752 21.4134 8.13053 21.4119L7.23697 21.4063L7.24675 19.8557C7.24935 19.4445 7.44012 19.0513 7.77711 18.7626C8.1141 18.4739 8.56969 18.3134 9.04367 18.3164C9.51764 18.3194 9.97117 18.4856 10.3045 18.7785C10.6378 19.0714 10.8236 19.467 10.821 19.8783L10.8063 22.2041C10.805 22.4097 10.8979 22.6075 11.0646 22.754C11.2312 22.9004 11.458 22.9835 11.695 22.985C11.932 22.9865 12.1598 22.9063 12.3283 22.7619C12.4968 22.6176 12.5922 22.421 12.5935 22.2154L12.6081 19.8895C12.608 19.448 12.4993 19.0114 12.2892 18.609C12.0791 18.2066 11.7724 17.8475 11.3897 17.5559C11.776 17.2692 12.0872 16.914 12.3024 16.5143C12.5176 16.1145 12.6318 15.6793 12.6375 15.2379V15.2379ZM7.27611 15.204C7.27805 14.8973 7.38475 14.5982 7.58273 14.3445C7.78071 14.0907 8.06108 13.8937 8.38838 13.7784C8.71567 13.6632 9.0752 13.6347 9.42149 13.6967C9.76778 13.7587 10.0853 13.9084 10.3338 14.1269C10.5824 14.3453 10.7509 14.6226 10.8179 14.9239C10.885 15.2251 10.8476 15.5366 10.7106 15.8191C10.5735 16.1016 10.3429 16.3423 10.048 16.5108C9.75301 16.6793 9.40691 16.7681 9.05345 16.7659C8.57948 16.7629 8.12594 16.5966 7.79263 16.3037C7.45931 16.0108 7.27352 15.6153 7.27611 15.204Z" fill="#6781F7"/>
<path d="M23.8988 17.6348C24.452 17.2243 24.8471 16.6766 25.031 16.0651C25.215 15.4537 25.1791 14.8078 24.9281 14.2139C24.6772 13.62 24.2232 13.1065 23.6269 12.7422C23.0307 12.3779 22.3207 12.1802 21.5921 12.1757C20.8635 12.1711 20.151 12.3598 19.5502 12.7165C18.9494 13.0732 18.489 13.581 18.2306 14.1716C17.9721 14.7623 17.9281 15.4077 18.1043 16.0214C18.2805 16.6351 18.6686 17.1877 19.2166 17.6053C18.8302 17.892 18.5191 18.2472 18.3039 18.6469C18.0887 19.0467 17.9744 19.4819 17.9688 19.9234L17.9541 22.2492C17.9528 22.4548 18.0457 22.6526 18.2124 22.7991C18.379 22.9455 18.6058 23.0286 18.8428 23.0301C19.0798 23.0316 19.3076 22.9514 19.476 22.807C19.6445 22.6627 19.7399 22.4661 19.7412 22.2605L19.7559 19.9346C19.7585 19.5234 19.9493 19.1302 20.2863 18.8415C20.6233 18.5529 21.0788 18.3924 21.5528 18.3953C22.0268 18.3983 22.4803 18.5646 22.8136 18.8575C23.147 19.1504 23.3328 19.546 23.3302 19.9572L23.3204 21.5077L22.4268 21.5021C22.1898 21.5006 21.962 21.5809 21.7935 21.7252C21.625 21.8695 21.5297 22.0661 21.5284 22.2718C21.5271 22.4774 21.62 22.6752 21.7866 22.8216C21.9533 22.9681 22.18 23.0512 22.417 23.0527L24.2042 23.0639C24.4411 23.0654 24.6689 22.9852 24.8374 22.8409C25.0059 22.6965 25.1013 22.4999 25.1026 22.2943L25.1173 19.9685C25.1172 19.527 25.0085 19.0904 24.7983 18.6879C24.5882 18.2855 24.2815 17.9264 23.8988 17.6348V17.6348ZM19.7853 15.2829C19.7872 14.9763 19.8939 14.6772 20.0919 14.4234C20.2899 14.1697 20.5702 13.9727 20.8975 13.8574C21.2248 13.7421 21.5844 13.7136 21.9306 13.7757C22.2769 13.8377 22.5944 13.9874 22.843 14.2058C23.0916 14.4242 23.26 14.7016 23.3271 15.0028C23.3941 15.304 23.3568 15.6155 23.2197 15.898C23.0827 16.1805 22.8521 16.4212 22.5571 16.5897C22.2622 16.7583 21.9161 16.847 21.5626 16.8448C21.0886 16.8418 20.6351 16.6756 20.3018 16.3827C19.9685 16.0898 19.7827 15.6942 19.7853 15.2829Z" fill="#6781F7"/>
<path d="M8.199 10.558C8.43599 10.5595 8.66379 10.4792 8.83228 10.3349C9.00077 10.1905 9.09616 9.99395 9.09746 9.78833L9.12682 5.13665C9.12811 4.93103 9.2235 4.73443 9.392 4.5901C9.56049 4.44576 9.78829 4.36551 10.0253 4.36701L18.9609 4.42341C19.1979 4.4249 19.4247 4.50802 19.5913 4.65447C19.758 4.80092 19.8509 4.99871 19.8496 5.20433L19.8398 6.75489C19.8387 6.85746 19.8141 6.95878 19.7675 7.05297C19.7208 7.14717 19.6531 7.23237 19.5682 7.30364C19.4009 7.44582 19.1758 7.52515 18.9413 7.52453L11.7928 7.47941C11.5558 7.47791 11.328 7.55816 11.1595 7.7025C10.9911 7.84683 10.8957 8.04343 10.8944 8.24905C10.8931 8.45467 10.986 8.65246 11.1526 8.79891C11.3193 8.94536 11.5461 9.02847 11.783 9.02997L18.9315 9.07509C19.6425 9.07957 20.3259 8.83883 20.8314 8.40583C21.3369 7.97282 21.623 7.38302 21.6269 6.76617L21.6367 5.2156C21.6406 4.59875 21.3619 4.00538 20.8619 3.56603C20.362 3.12668 19.6817 2.87733 18.9707 2.87285L10.0351 2.81645C9.3241 2.81196 8.64071 3.0527 8.13523 3.48571C7.62975 3.91872 7.34358 4.50852 7.33969 5.12537L7.31033 9.77705C7.30903 9.98267 7.40193 10.1805 7.56859 10.3269C7.73525 10.4734 7.96201 10.5565 8.199 10.558Z" fill="#6781F7"/>
</svg>
