<svg width="30" height="26" viewBox="0 0 30 26" fill="none" xmlns="http://www.w3.org/2000/svg">
<path fill-rule="evenodd" clip-rule="evenodd" d="M13.1991 3.77833C14.0868 3.14499 15.3703 3.15309 16.2499 3.79759L25.7372 10.7491C26.278 11.1453 26.5884 11.7292 26.5845 12.3428L26.5256 21.6788C26.5184 22.8206 25.4458 23.7395 24.1298 23.7312L5.06827 23.6109C3.75234 23.6026 2.69141 22.6703 2.69862 21.5284L2.75754 12.1924C2.76142 11.5788 3.07919 10.9989 3.6249 10.6095L13.1991 3.77833ZM14.7145 5.37619L5.14024 12.2074L5.08132 21.5435L9.8467 21.5735L9.86954 17.9556C9.87675 16.8137 10.9494 15.8949 12.2653 15.9032L17.0307 15.9333C18.3466 15.9416 19.4075 16.8739 19.4003 18.0157L19.3775 21.6337L24.1429 21.6638L24.2018 12.3277L14.7145 5.37619ZM16.9948 21.6187L17.0176 18.0007L12.2522 17.9706L12.2294 21.5886L16.9948 21.6187Z" fill="#6781F7"/>
</svg>
