<svg width="30" height="25" viewBox="0 0 30 25" fill="none" xmlns="http://www.w3.org/2000/svg">
<path d="M22.5524 2.46537C21.6688 2.45979 20.8035 2.68169 20.0661 3.103C19.3287 3.5243 18.7522 4.1261 18.4096 4.83228C18.067 5.53847 17.9736 6.31733 18.1412 7.07036C18.3089 7.8234 18.73 8.51679 19.3514 9.06286C19.9728 9.60893 20.7666 9.98314 21.6323 10.1382C22.4981 10.2932 23.3969 10.2221 24.2151 9.93389C25.0333 9.64565 25.7343 9.1532 26.2292 8.51883C26.7242 7.88446 26.9909 7.13665 26.9958 6.36997C27.0009 5.34225 26.5359 4.354 25.7029 3.62201C24.8699 2.89002 23.7369 2.47406 22.5524 2.46537V2.46537ZM22.5133 8.66761C21.9831 8.66426 21.4657 8.52459 21.0264 8.26624C20.5872 8.00789 20.2459 7.64247 20.0457 7.2162C19.8455 6.78993 19.7953 6.32194 19.9016 5.87143C20.0079 5.42091 20.2658 5.0081 20.6428 4.68519C21.0197 4.36228 21.4988 4.14378 22.0194 4.05732C22.5399 3.97086 23.0786 4.02032 23.5674 4.19945C24.0561 4.37858 24.4729 4.67933 24.765 5.06367C25.0572 5.44801 25.2115 5.89868 25.2086 6.35869C25.204 6.97533 24.9176 7.56474 24.4122 7.9976C23.9069 8.43046 23.224 8.67142 22.5133 8.66761V8.66761Z" fill="#6781F7"/>
<path d="M24.2804 11.78C24.0435 11.7785 23.8157 11.8588 23.6472 12.0031C23.4787 12.1474 23.3833 12.344 23.382 12.5496L23.3331 20.3024C23.3316 20.508 23.2361 20.7045 23.0677 20.8488C22.8993 20.9931 22.6716 21.0734 22.4347 21.0721L6.35152 20.9706C6.11454 20.9691 5.88779 20.886 5.72114 20.7395C5.55449 20.5931 5.4616 20.3953 5.4629 20.1897L5.55098 6.23462C5.55258 6.02909 5.64806 5.83264 5.81648 5.68836C5.98489 5.54408 6.2125 5.46375 6.44938 5.46498L15.3845 5.52137C15.6215 5.52287 15.8492 5.44262 16.0177 5.29828C16.1862 5.15395 16.2816 4.95735 16.2829 4.75173C16.2842 4.54611 16.1913 4.34832 16.0246 4.20187C15.858 4.05542 15.6312 3.97231 15.3943 3.97081L6.45916 3.91442C5.74848 3.91061 5.06558 4.15157 4.5603 4.58443C4.05502 5.01729 3.76863 5.6067 3.76396 6.22334L3.67588 20.1784C3.67299 20.4839 3.74 20.787 3.87302 21.0702C4.00604 21.3533 4.20243 21.6108 4.45081 21.8278C4.95178 22.2657 5.63125 22.5149 6.34173 22.5211L22.4249 22.6226C23.1356 22.6265 23.8185 22.3855 24.3238 21.9526C24.829 21.5198 25.1154 20.9304 25.1201 20.3137L25.169 12.5609C25.1703 12.3553 25.0775 12.1575 24.9108 12.0111C24.7442 11.8646 24.5174 11.7815 24.2804 11.78Z" fill="#6781F7"/>
</svg>
