<svg width="30" height="26" viewBox="0 0 30 26" fill="none" xmlns="http://www.w3.org/2000/svg">
<path d="M24.1029 12.3199L18.9751 9.31035C18.5455 6.9621 17.2852 4.78657 15.3687 3.0851C15.2861 3.01191 15.1877 2.95361 15.079 2.91357C14.9704 2.87352 14.8537 2.85252 14.7358 2.85177C14.6178 2.85103 14.5009 2.87056 14.3918 2.90923C14.2826 2.9479 14.1835 3.00496 14.0999 3.0771C12.1621 4.75423 10.8745 6.91368 10.4153 9.25633L5.24986 12.2009C5.12651 12.2704 5.02489 12.3652 4.95404 12.477C4.88318 12.5889 4.84529 12.7142 4.84372 12.8419L4.82415 15.943C4.82285 16.1486 4.91575 16.3464 5.08239 16.4928C5.24904 16.6393 5.47579 16.7224 5.71277 16.7239L7.49979 16.7352C7.73676 16.7367 7.96454 16.6564 8.13303 16.5121C8.30151 16.3678 8.39689 16.1712 8.39819 15.9655C8.39949 15.7599 8.3066 15.5621 8.13995 15.4157C7.9733 15.2692 7.74655 15.1861 7.50957 15.1846L6.61606 15.179L6.6281 13.2718L10.2152 11.2244L10.1852 15.9768C10.1839 16.1824 10.2768 16.3802 10.4435 16.5267C10.6101 16.6731 10.8369 16.7562 11.0738 16.7577L18.2219 16.8029C18.4589 16.8043 18.6867 16.7241 18.8551 16.5798C19.0236 16.4354 19.119 16.2388 19.1203 16.0332L19.1503 11.2807L22.7113 13.3733L22.6992 15.2805L21.8057 15.2749C21.5688 15.2734 21.341 15.3536 21.1725 15.4979C21.004 15.6423 20.9086 15.8389 20.9073 16.0445C20.906 16.2501 20.9989 16.4479 21.1656 16.5943C21.3322 16.7408 21.559 16.8239 21.7959 16.8254L23.583 16.8367C23.8199 16.8382 24.0477 16.7579 24.2162 16.6136C24.3847 16.4693 24.4801 16.2727 24.4814 16.067L24.5009 12.9659C24.501 12.8382 24.4647 12.7124 24.3952 12.5997C24.3258 12.487 24.2254 12.3909 24.1029 12.3199V12.3199ZM17.3382 15.2467L11.9771 15.2128L12.0033 11.0728C12.0231 8.75104 12.9866 6.51127 14.7238 4.74795C16.4387 6.53306 17.3737 8.78481 17.3643 11.1067L17.3382 15.2467Z" fill="#6781F7"/>
<path d="M18.213 18.3534C17.976 18.3519 17.7482 18.4322 17.5797 18.5765C17.4112 18.7208 17.3159 18.9174 17.3146 19.1231C17.3133 19.3287 17.4062 19.5265 17.5728 19.6729C17.7395 19.8194 17.9662 19.9025 18.2032 19.904C18.7578 19.9072 19.2979 20.0596 19.7491 20.3402C20.2002 20.6208 20.5402 21.0157 20.7222 21.4705L8.51615 21.3935C8.70388 20.941 9.04884 20.5504 9.5035 20.2755C9.95816 20.0007 10.5001 19.8551 11.0547 19.8589C11.2917 19.8604 11.5195 19.7801 11.688 19.6358C11.8565 19.4914 11.9519 19.2948 11.9532 19.0892C11.9545 18.8836 11.8616 18.6858 11.6949 18.5394C11.5283 18.3929 11.3015 18.3098 11.0645 18.3083C9.87957 18.3008 8.74059 18.7021 7.89812 19.4237C7.05566 20.1454 6.57872 21.1284 6.57223 22.1565C6.57091 22.2585 6.59281 22.3598 6.63668 22.4546C6.68055 22.5493 6.74553 22.6356 6.82789 22.7086C6.99823 22.8513 7.22433 22.9331 7.4609 22.9374L21.7579 23.0277C21.9949 23.0291 22.2227 22.9489 22.3912 22.8046C22.5597 22.6602 22.6551 22.4636 22.6564 22.258C22.6629 21.2299 22.1984 20.241 21.3651 19.5087C20.5318 18.7765 19.398 18.3609 18.213 18.3534V18.3534Z" fill="#6781F7"/>
</svg>
