<svg width="30" height="26" viewBox="0 0 30 26" fill="none" xmlns="http://www.w3.org/2000/svg">
<path d="M5.70703 9.81379C5.87492 9.67114 6.07368 9.55869 6.29191 9.4829C6.51014 9.40712 6.74354 9.36947 6.97873 9.37214C7.4527 9.37513 7.90623 9.54136 8.23955 9.83426C8.57287 10.1272 8.75866 10.5227 8.75607 10.934C8.75477 11.1396 8.84767 11.3374 9.01433 11.4838C9.18098 11.6303 9.40775 11.7134 9.64474 11.7149C9.88173 11.7164 10.1095 11.6361 10.278 11.4918C10.4465 11.3475 10.5419 11.1509 10.5432 10.9453C10.5431 10.5037 10.4344 10.0672 10.2242 9.66472C10.0141 9.26227 9.70745 8.90324 9.32476 8.61163C9.87793 8.20104 10.273 7.65335 10.4569 7.04193C10.6409 6.43052 10.605 5.78459 10.354 5.1907C10.1031 4.59681 9.64907 4.08331 9.05283 3.71902C8.45659 3.35473 7.7466 3.15704 7.01798 3.15244C6.28937 3.14784 5.57694 3.33655 4.97614 3.69329C4.37535 4.05003 3.91489 4.55775 3.65647 5.14843C3.39804 5.73911 3.35399 6.38453 3.53022 6.99822C3.70645 7.6119 4.09453 8.16454 4.64248 8.58208C4.57964 8.6282 4.50791 8.66652 4.454 8.7127C4.12037 8.99881 3.8551 9.33926 3.67333 9.71459C3.49157 10.0899 3.39689 10.4928 3.39469 10.9001C3.39339 11.1058 3.48629 11.3035 3.65294 11.45C3.8196 11.5964 4.04637 11.6796 4.28336 11.6811C4.52034 11.6826 4.74814 11.6023 4.91663 11.458C5.08513 11.3136 5.18051 11.117 5.18181 10.9114C5.18174 10.7073 5.2281 10.5053 5.31823 10.317C5.40835 10.1286 5.54048 9.95763 5.70703 9.81379V9.81379ZM7.00809 4.72046C7.36155 4.72269 7.70649 4.81581 7.99931 4.98804C8.29213 5.16027 8.51966 5.40388 8.65313 5.68806C8.78661 5.97225 8.82003 6.28424 8.74918 6.58458C8.67832 6.88492 8.50637 7.16013 8.25507 7.3754C8.00377 7.59068 7.6844 7.73634 7.33735 7.79398C6.99031 7.85163 6.63117 7.81865 6.30535 7.69923C5.97954 7.57981 5.70168 7.37931 5.50692 7.12308C5.31216 6.86686 5.20924 6.56641 5.21117 6.25974C5.21377 5.8485 5.40454 5.4553 5.74153 5.16663C6.07852 4.87796 6.53411 4.71747 7.00809 4.72046V4.72046Z" fill="#8B97AE"/>
<path d="M11.4361 10.9509C11.4348 11.1565 11.5277 11.3543 11.6944 11.5007C11.861 11.6472 12.0878 11.7303 12.3248 11.7318C12.5618 11.7333 12.7896 11.6531 12.9581 11.5087C13.1266 11.3644 13.222 11.1678 13.2233 10.9622C13.2258 10.5509 13.4166 10.1577 13.7536 9.86906C14.0906 9.58039 14.5462 9.4199 15.0202 9.42289C15.4941 9.42588 15.9477 9.59211 16.281 9.88501C16.6143 10.1779 16.8001 10.5735 16.7975 10.9847C16.7962 11.1903 16.8891 11.3881 17.0558 11.5346C17.2224 11.681 17.4492 11.7642 17.6862 11.7656C17.9232 11.7671 18.151 11.6869 18.3195 11.5426C18.4879 11.3982 18.5833 11.2016 18.5846 10.996C18.5845 10.5545 18.4758 10.1179 18.2657 9.71547C18.0556 9.31302 17.7489 8.95399 17.3662 8.66238C17.9194 8.25179 18.3144 7.7041 18.4984 7.09268C18.6823 6.48127 18.6464 5.83534 18.3955 5.24145C18.1445 4.64756 17.6905 4.13406 17.0943 3.76977C16.498 3.40548 15.788 3.20779 15.0594 3.20319C14.3308 3.19859 13.6184 3.3873 13.0176 3.74404C12.4168 4.10078 11.9563 4.6085 11.6979 5.19918C11.4395 5.78986 11.3954 6.43528 11.5717 7.04897C11.7479 7.66265 12.136 8.21529 12.6839 8.63283C12.2976 8.91958 11.9864 9.27472 11.7712 9.67448C11.556 10.0742 11.4418 10.5094 11.4361 10.9509V10.9509ZM13.2526 6.31049C13.2545 6.00382 13.3613 5.70469 13.5592 5.45095C13.7572 5.1972 14.0376 5.00022 14.3649 4.88492C14.6922 4.76962 15.0517 4.74119 15.398 4.8032C15.7443 4.86522 16.0618 5.01491 16.3103 5.23333C16.5589 5.45176 16.7274 5.72912 16.7944 6.03033C16.8615 6.33155 16.8241 6.64309 16.6871 6.92556C16.55 7.20804 16.3194 7.44876 16.0245 7.61728C15.7295 7.7858 15.3834 7.87456 15.03 7.87233C14.556 7.86934 14.1024 7.70311 13.7691 7.4102C13.4358 7.1173 13.25 6.72172 13.2526 6.31049Z" fill="#8B97AE"/>
<path d="M25.4078 8.71314C25.9609 8.30254 26.356 7.75485 26.5399 7.14343C26.7239 6.53202 26.688 5.88609 26.437 5.2922C26.1861 4.69831 25.7321 4.18481 25.1358 3.82052C24.5396 3.45623 23.8296 3.25854 23.101 3.25394C22.3724 3.24934 21.6599 3.43806 21.0592 3.79479C20.4584 4.15153 19.9979 4.65925 19.7395 5.24993C19.4811 5.84061 19.437 6.48603 19.6132 7.09972C19.7895 7.7134 20.1775 8.26604 20.7255 8.68358C20.6626 8.72971 20.5909 8.76802 20.537 8.8142C20.2034 9.10031 19.9381 9.44076 19.7563 9.81609C19.5746 10.1914 19.4799 10.5943 19.4777 11.0016C19.4764 11.2073 19.5693 11.405 19.736 11.5515C19.9026 11.6979 20.1294 11.7811 20.3664 11.7826C20.6034 11.7841 20.8311 11.7038 20.9996 11.5595C21.1681 11.4151 21.2635 11.2185 21.2648 11.0129C21.2674 10.6017 21.4582 10.2085 21.7952 9.91981C22.1322 9.63114 22.5878 9.47065 23.0617 9.47364C23.5357 9.47663 23.9892 9.64286 24.3226 9.93576C24.6559 10.2287 24.8417 10.6242 24.8391 11.0355C24.8378 11.2411 24.9307 11.4389 25.0973 11.5853C25.264 11.7318 25.4908 11.8149 25.7277 11.8164C25.9647 11.8179 26.1925 11.7376 26.361 11.5933C26.5295 11.449 26.6249 11.2524 26.6262 11.0468C26.6261 10.6052 26.5174 10.1687 26.3072 9.76622C26.0971 9.36377 25.7905 9.00474 25.4078 8.71314V8.71314ZM23.0911 4.82196C23.4446 4.82419 23.7895 4.91731 24.0823 5.08954C24.3751 5.26177 24.6027 5.50538 24.7361 5.78957C24.8696 6.07375 24.903 6.38574 24.8322 6.68608C24.7613 6.98642 24.5894 7.26163 24.3381 7.47691C24.0868 7.69218 23.7674 7.83785 23.4204 7.89549C23.0733 7.95313 22.7142 7.92015 22.3884 7.80073C22.0625 7.68131 21.7847 7.48081 21.5899 7.22459C21.3952 6.96836 21.2922 6.66791 21.2942 6.36124C21.2968 5.95001 21.4875 5.5568 21.8245 5.26813C22.1615 4.97946 22.6171 4.81897 23.0911 4.82196V4.82196Z" fill="#8B97AE"/>
<path d="M23.8965 18.7826L9.96663 18.6947L10.2361 18.4716C10.4053 18.3267 10.501 18.1293 10.5023 17.9228C10.5037 17.7163 10.4104 17.5177 10.243 17.3707C10.0757 17.2236 9.84804 17.1402 9.6101 17.1387C9.37215 17.1372 9.14344 17.2178 8.97426 17.3627L7.17746 18.902C7.09565 18.9752 7.03133 19.0617 6.98821 19.1566C6.89765 19.3448 6.89631 19.5565 6.98449 19.7458C7.02641 19.8413 7.08963 19.9286 7.17051 20.0029L8.94774 21.5647C9.03035 21.6379 9.12881 21.6962 9.23744 21.7362C9.34608 21.7763 9.46273 21.7973 9.58069 21.798C9.69864 21.7988 9.81556 21.7793 9.92469 21.7406C10.0338 21.7019 10.133 21.6449 10.2165 21.5727C10.3007 21.5012 10.3677 21.4158 10.4137 21.3217C10.4597 21.2275 10.4837 21.1263 10.4843 21.0239C10.4849 20.9216 10.4622 20.8201 10.4175 20.7253C10.3727 20.6306 10.3068 20.5444 10.2235 20.4718L9.95684 20.2453L23.8867 20.3332C24.1236 20.3347 24.3514 20.2545 24.5199 20.1101C24.6884 19.9658 24.7838 19.7692 24.7851 19.5636C24.7864 19.3579 24.6935 19.1602 24.5268 19.0137C24.3602 18.8673 24.1334 18.7841 23.8965 18.7826Z" fill="#8B97AE"/>
<path d="M12.5584 15.8346C12.4742 15.9061 12.4072 15.9915 12.3613 16.0857C12.3153 16.1799 12.2913 16.281 12.2907 16.3834C12.29 16.4857 12.3127 16.5872 12.3575 16.682C12.4023 16.7767 12.4682 16.8629 12.5515 16.9355C12.6341 17.0087 12.7326 17.067 12.8412 17.107C12.9498 17.1471 13.0665 17.1681 13.1845 17.1688C13.3024 17.1696 13.4194 17.15 13.5285 17.1114C13.6376 17.0727 13.7368 17.0156 13.8204 16.9435L15.6173 15.4042C15.6991 15.331 15.7634 15.2445 15.8065 15.1496C15.8971 14.9614 15.8984 14.7497 15.8102 14.5604C15.7683 14.4649 15.7051 14.3776 15.6242 14.3033L13.8469 12.7415C13.6795 12.5944 13.4518 12.511 13.2139 12.5095C12.9759 12.508 12.7472 12.5886 12.578 12.7335C12.4088 12.8784 12.3131 13.0758 12.3117 13.2823C12.3104 13.4887 12.4037 13.6873 12.5711 13.8344L12.8377 14.0609L6.05557 14.0181C5.81858 14.0166 5.59079 14.0968 5.42229 14.2412C5.2538 14.3855 5.15841 14.5821 5.15711 14.7877C5.15582 14.9934 5.24872 15.1911 5.41537 15.3376C5.58203 15.484 5.8088 15.5672 6.04578 15.5687L12.8279 15.6115L12.5584 15.8346Z" fill="#8B97AE"/>
</svg>
