<svg width="30" height="26" viewBox="0 0 30 26" fill="none" xmlns="http://www.w3.org/2000/svg">
<path d="M9.5898 21.8031L6.90927 21.7862L6.99735 7.83117L23.974 7.93832C24.211 7.93981 24.4388 7.85957 24.6073 7.71523C24.7758 7.5709 24.8711 7.3743 24.8724 7.16868C24.8737 6.96306 24.7808 6.76527 24.6142 6.61882C24.4476 6.47237 24.2208 6.38925 23.9838 6.38776L23.0903 6.38212L23.105 4.05628C23.1063 3.85066 23.0134 3.65287 22.8468 3.50642C22.6801 3.35997 22.4534 3.27686 22.2164 3.27536L7.92022 3.18513C7.68324 3.18364 7.45546 3.26388 7.28698 3.40822C7.11849 3.55255 7.02311 3.74915 7.02181 3.95477L7.00713 6.28061L6.11362 6.27497C5.87665 6.27348 5.64887 6.35372 5.48038 6.49806C5.3119 6.6424 5.21652 6.839 5.21522 7.04461L5.11736 22.5502C5.11606 22.7558 5.20895 22.9536 5.3756 23.1001C5.54225 23.2465 5.769 23.3296 6.00597 23.3311L9.58001 23.3537C9.81699 23.3552 10.0448 23.2749 10.2133 23.1306C10.3817 22.9863 10.4771 22.7897 10.4784 22.5841C10.4797 22.3784 10.3868 22.1806 10.2202 22.0342C10.0535 21.8877 9.82677 21.8046 9.5898 21.8031ZM8.80394 4.74133L21.3131 4.82028L21.3033 6.37084L8.79415 6.29189L8.80394 4.74133Z" fill="#8B97AE"/>
<path d="M23.965 9.48888C23.728 9.48739 23.5002 9.56764 23.3317 9.71197C23.1632 9.85631 23.0678 10.0529 23.0665 10.2585L22.9931 21.8877L17.6317 21.8539L17.6562 17.9775C17.6575 17.7719 17.5646 17.5741 17.3979 17.4276C17.2313 17.2812 17.0045 17.1981 16.7675 17.1966L13.1933 17.174C12.9563 17.1725 12.7285 17.2528 12.56 17.3971C12.3915 17.5414 12.2961 17.738 12.2948 17.9437L12.2654 22.5953C12.2642 22.8009 12.3571 22.9987 12.5237 23.1452C12.6904 23.2916 12.9171 23.3748 13.1541 23.3763C13.3911 23.3777 13.6189 23.2975 13.7874 23.1532C13.9559 23.0088 14.0513 22.8122 14.0526 22.6066L14.077 18.7302L15.8642 18.7415L15.8397 22.6179C15.8384 22.8235 15.9313 23.0213 16.098 23.1677C16.2646 23.3142 16.4914 23.3973 16.7284 23.3988L23.8769 23.4439C24.1139 23.4454 24.3417 23.3652 24.5102 23.2208C24.6786 23.0765 24.774 22.8799 24.7753 22.6743L24.8536 10.2698C24.8549 10.0642 24.762 9.8664 24.5954 9.71995C24.4287 9.5735 24.2019 9.49038 23.965 9.48888Z" fill="#8B97AE"/>
<path d="M20.3911 9.46633L9.66834 9.39865C9.43136 9.39716 9.20356 9.4774 9.03507 9.62174C8.86657 9.76607 8.77118 9.96268 8.76989 10.1683C8.76859 10.3739 8.86149 10.5717 9.02815 10.7182C9.1948 10.8646 9.42157 10.9477 9.65856 10.9492L20.3813 11.0169C20.6183 11.0184 20.8461 10.9381 21.0146 10.7938C21.1831 10.6495 21.2785 10.4529 21.2798 10.2472C21.2811 10.0416 21.1882 9.84384 21.0215 9.69739C20.8549 9.55094 20.6281 9.46782 20.3911 9.46633Z" fill="#8B97AE"/>
<path d="M20.3716 12.5674L9.64881 12.4998C9.41182 12.4983 9.18403 12.5785 9.01553 12.7229C8.84704 12.8672 8.75165 13.0638 8.75036 13.2694C8.74906 13.475 8.84196 13.6728 9.00861 13.8193C9.17527 13.9657 9.40204 14.0488 9.63903 14.0503L20.3618 14.118C20.5988 14.1195 20.8266 14.0393 20.9951 13.8949C21.1636 13.7506 21.2589 13.554 21.2602 13.3484C21.2615 13.1428 21.1686 12.945 21.002 12.7985C20.8353 12.6521 20.6086 12.5689 20.3716 12.5674Z" fill="#8B97AE"/>
</svg>
