<svg width="29" height="26" viewBox="0 0 29 26" fill="none" xmlns="http://www.w3.org/2000/svg">
<path d="M18.1769 5.75402C18.1835 5.23399 18.0414 4.72063 17.7637 4.26119C17.486 3.80175 17.0816 3.41097 16.5877 3.12481C16.0938 2.83866 15.5263 2.66631 14.9373 2.62363C14.3484 2.58095 13.757 2.66931 13.2175 2.88058C12.6779 3.09184 12.2077 3.41923 11.8499 3.83262C11.4922 4.24602 11.2584 4.73213 11.1702 5.24625C11.0819 5.76036 11.142 6.28597 11.3449 6.7747C11.5478 7.26343 11.887 7.69959 12.3313 8.04306C11.9505 8.32984 11.6437 8.685 11.4316 9.08478C11.2194 9.48456 11.1068 9.91975 11.1012 10.3612C11.0999 10.5668 11.1914 10.7646 11.3557 10.9111C11.52 11.0575 11.7435 11.1406 11.9771 11.1421C12.2107 11.1435 12.4352 11.0633 12.6013 10.9189C12.7674 10.7746 12.8615 10.578 12.8628 10.3723C12.8654 9.96111 13.0534 9.56789 13.3856 9.27919C13.7178 8.99049 14.1669 8.82995 14.6341 8.8329C15.1013 8.83585 15.5484 9.00204 15.8769 9.29491C16.2054 9.58778 16.3885 9.98335 16.386 10.3946C16.3847 10.6002 16.4762 10.798 16.6405 10.9444C16.8047 11.0909 17.0283 11.1739 17.2619 11.1754C17.4955 11.1769 17.72 11.0966 17.8861 10.9523C18.0522 10.8079 18.1462 10.6113 18.1475 10.4057C18.1475 9.96418 18.0404 9.52761 17.8333 9.12519C17.6262 8.72276 17.3239 8.36376 16.9467 8.07219C17.3276 7.7854 17.6343 7.43024 17.8465 7.03046C18.0586 6.63068 18.1713 6.1955 18.1769 5.75402V5.75402ZM12.8921 5.72066C12.8941 5.41399 12.9993 5.11486 13.1944 4.86109C13.3896 4.60733 13.666 4.41032 13.9886 4.295C14.3113 4.17967 14.6656 4.1512 15.007 4.21318C15.3483 4.27517 15.6613 4.42483 15.9063 4.64323C16.1513 4.86164 16.3173 5.13898 16.3834 5.44019C16.4494 5.7414 16.4126 6.05294 16.2775 6.33543C16.1424 6.61791 15.915 6.85865 15.6243 7.0272C15.3335 7.19575 14.9923 7.28454 14.6439 7.28234C14.1767 7.27939 13.7297 7.1132 13.4012 6.82033C13.0726 6.52746 12.8895 6.1319 12.8921 5.72066Z" fill="#fff"/>
<path d="M10.1769 17.3332C10.1835 16.8131 10.0414 16.2998 9.76371 15.8404C9.48601 15.3809 9.0816 14.9901 8.5877 14.704C8.09381 14.4178 7.52628 14.2455 6.93735 14.2028C6.34841 14.1601 5.75697 14.2485 5.21746 14.4597C4.67794 14.671 4.20767 14.9984 3.84991 15.4118C3.49215 15.8252 3.2584 16.3113 3.17015 16.8254C3.08191 17.3395 3.14201 17.8651 3.34492 18.3539C3.54784 18.8426 3.88705 19.2788 4.33135 19.6222L4.14555 19.7529C3.81666 20.039 3.55514 20.3795 3.37594 20.7548C3.19674 21.1302 3.10337 21.533 3.10117 21.9404C3.09987 22.146 3.19142 22.3438 3.35569 22.4902C3.51995 22.6367 3.74347 22.7198 3.97707 22.7212C4.21067 22.7227 4.43522 22.6424 4.60132 22.4981C4.76742 22.3537 4.86147 22.1571 4.86276 21.9515C4.86536 21.5403 5.05344 21.1471 5.38564 20.8584C5.71784 20.5697 6.16694 20.4091 6.63415 20.4121C7.10135 20.415 7.54839 20.5812 7.87692 20.8741C8.20544 21.1669 8.38855 21.5625 8.38596 21.9737C8.38466 22.1794 8.47621 22.3771 8.64048 22.5236C8.80474 22.67 9.02826 22.7531 9.26186 22.7546C9.49546 22.7561 9.72001 22.6758 9.88611 22.5314C10.0522 22.3871 10.1463 22.1905 10.1476 21.9849C10.1475 21.5433 10.0404 21.1068 9.83327 20.7044C9.62618 20.3019 9.32393 19.9429 8.94673 19.6514C9.32758 19.3646 9.63434 19.0094 9.84649 18.6096C10.0586 18.2098 10.1713 17.7747 10.1769 17.3332ZM6.66351 15.7604C7.01192 15.7626 7.35193 15.8557 7.64055 16.0279C7.92916 16.2001 8.15342 16.4437 8.28497 16.7278C8.41651 17.012 8.44943 17.324 8.37956 17.6243C8.30969 17.9247 8.14017 18.1999 7.89244 18.4152C7.6447 18.6305 7.32988 18.7762 6.98779 18.8339C6.6457 18.8916 6.29169 18.8586 5.97054 18.7392C5.64939 18.6198 5.37553 18.4194 5.18357 18.1631C4.99161 17.9069 4.89019 17.6065 4.89212 17.2998C4.89472 16.8886 5.0828 16.4954 5.415 16.2067C5.7472 15.918 6.1963 15.7574 6.66351 15.7604V15.7604Z" fill="#fff"/>
<path d="M24.8001 19.7515C25.3454 19.3409 25.7348 18.7932 25.9162 18.1817C26.0976 17.5703 26.0623 16.9244 25.8149 16.3305C25.5676 15.7366 25.1202 15.2232 24.5325 14.8589C23.9448 14.4947 23.2449 14.2971 22.5267 14.2926C21.8085 14.288 21.1063 14.4768 20.514 14.8336C19.9218 15.1904 19.4678 15.6981 19.2131 16.2888C18.9583 16.8795 18.9148 17.525 19.0885 18.1386C19.2621 18.7523 19.6446 19.3049 20.1847 19.7224C19.8038 20.0092 19.4971 20.3644 19.2849 20.7641C19.0728 21.1639 18.9601 21.5991 18.9545 22.0406C18.9532 22.2462 19.0448 22.444 19.209 22.5904C19.3733 22.7368 19.5968 22.8199 19.8304 22.8214C20.064 22.8229 20.2886 22.7426 20.4547 22.5983C20.6208 22.4539 20.7148 22.2573 20.7161 22.0517C20.7187 21.6405 20.9068 21.2472 21.239 20.9585C21.5712 20.6698 22.0203 20.5093 22.4875 20.5123C22.9547 20.5152 23.4017 20.6814 23.7302 20.9743C24.0588 21.2671 24.2419 21.6627 24.2393 22.0739C24.238 22.2795 24.3295 22.4773 24.4938 22.6238C24.6581 22.7702 24.8816 22.8533 25.1152 22.8548C25.3488 22.8562 25.5733 22.776 25.7394 22.6316C25.9055 22.4873 25.9996 22.2907 26.0009 22.085C26.0008 21.6435 25.8937 21.207 25.6866 20.8045C25.4795 20.4021 25.1773 20.0431 24.8001 19.7515V19.7515ZM20.7455 17.4C20.7474 17.0933 20.8526 16.7942 21.0478 16.5404C21.2429 16.2867 21.5193 16.0897 21.842 15.9743C22.1646 15.859 22.519 15.8305 22.8603 15.8925C23.2017 15.9545 23.5146 16.1042 23.7596 16.3226C24.0046 16.541 24.1706 16.8183 24.2367 17.1195C24.3028 17.4207 24.2659 17.7323 24.1308 18.0148C23.9957 18.2973 23.7684 18.538 23.4776 18.7066C23.1868 18.8751 22.8457 18.9639 22.4973 18.9617C22.0301 18.9587 21.583 18.7926 21.2545 18.4997C20.926 18.2068 20.7429 17.8112 20.7455 17.4Z" fill="#fff"/>
<path d="M16.3468 16.5968L15.466 16.5913L15.4905 12.7149C15.4918 12.5093 15.4002 12.3115 15.2359 12.165C15.0717 12.0186 14.8482 11.9355 14.6146 11.934C14.381 11.9326 14.1564 12.0128 13.9903 12.1572C13.8242 12.3015 13.7302 12.4981 13.7289 12.7038L13.7044 16.5802L12.8236 16.5746C12.59 16.5731 12.3655 16.6534 12.1994 16.7977C12.0333 16.9421 11.9392 17.1387 11.9379 17.3443C11.9366 17.5499 12.0282 17.7477 12.1924 17.8942C12.3567 18.0406 12.5802 18.1237 12.8138 18.1252L16.337 18.1474C16.5706 18.1489 16.7952 18.0686 16.9613 17.9243C17.1274 17.7799 17.2214 17.5833 17.2227 17.3777C17.224 17.1721 17.1324 16.9743 16.9682 16.8278C16.8039 16.6814 16.5804 16.5983 16.3468 16.5968Z" fill="#fff"/>
</svg>
